<?xml version="1.0" standalone="no"?>
<!DOCTYPE svg PUBLIC "-//W3C//DTD SVG 20010904//EN"
 "http://www.w3.org/TR/2001/REC-SVG-20010904/DTD/svg10.dtd">
<svg version="1.0" xmlns="http://www.w3.org/2000/svg"
 width="320.000000pt" height="320.000000pt" viewBox="0 0 320.000000 320.000000"
 preserveAspectRatio="xMidYMid meet">
<metadata>
Created by potrace 1.11, written by Peter Selinger 2001-2013
</metadata>
<g transform="translate(0.000000,320.000000) scale(0.100000,-0.100000)"
fill="#000000" stroke="none">
<path d="M1380 2725 c0 -23 -3 -25 -50 -25 -47 0 -50 -2 -50 -25 0 -23 -4 -25
-45 -25 -41 0 -45 -2 -45 -25 0 -20 -5 -25 -25 -25 -20 0 -25 -5 -25 -25 0
-20 -5 -25 -25 -25 -23 0 -25 -4 -25 -45 0 -41 -2 -45 -25 -45 -24 0 -25 -2
-25 -75 0 -73 1 -75 25 -75 23 0 25 -3 25 -50 l0 -50 50 0 50 0 0 -50 c0 -47
-2 -50 -25 -50 -23 0 -25 -3 -25 -50 l0 -50 -50 0 -50 0 0 -50 c0 -47 2 -50
25 -50 24 0 25 -2 25 -70 0 -68 1 -70 25 -70 20 0 25 -5 25 -25 0 -25 0 -25
95 -25 95 0 95 0 95 -25 0 -23 3 -25 50 -25 47 0 50 2 50 25 0 23 -3 25 -50
25 -47 0 -50 2 -50 25 0 20 5 25 25 25 20 0 25 5 25 25 0 20 5 25 25 25 20 0
25 5 25 25 0 20 5 25 25 25 20 0 25 -5 25 -25 0 -20 5 -25 25 -25 20 0 25 -5
25 -25 0 -20 5 -25 25 -25 20 0 25 -5 25 -25 0 -24 2 -25 75 -25 73 0 75 1 75
25 0 20 5 25 25 25 20 0 25 5 25 25 0 20 5 25 25 25 23 0 25 4 25 45 l0 45
120 0 120 0 0 -45 0 -45 50 0 50 0 0 45 0 45 50 0 50 0 0 125 0 125 25 0 25 0
0 100 0 100 -25 0 c-20 0 -25 5 -25 25 0 20 -5 25 -25 25 -20 0 -25 5 -25 25
0 24 -2 25 -75 25 l-75 0 0 45 c0 41 -2 45 -25 45 -23 0 -25 3 -25 50 l0 50
-50 0 c-47 0 -50 2 -50 25 0 18 -5 25 -20 25 -15 0 -20 7 -20 25 l0 25 -250 0
-250 0 0 -25z m50 -340 c0 -20 5 -25 25 -25 20 0 25 -5 25 -25 0 -20 5 -25 25
-25 20 0 25 5 25 25 0 20 5 25 25 25 20 0 25 5 25 25 0 24 2 25 75 25 73 0 75
-1 75 -25 0 -23 3 -25 50 -25 47 0 50 -2 50 -25 0 -23 4 -25 45 -25 41 0 45
-2 45 -25 0 -20 5 -25 25 -25 23 0 25 -3 25 -50 0 -47 2 -50 25 -50 20 0 25
-5 25 -25 0 -20 5 -25 25 -25 24 0 25 -2 25 -75 l0 -75 -95 0 -95 0 0 50 c0
47 -2 50 -25 50 -20 0 -25 5 -25 25 l0 25 -100 0 -100 0 0 -25 c0 -20 -5 -25
-25 -25 -20 0 -25 -5 -25 -25 0 -20 -5 -25 -25 -25 -20 0 -25 -5 -25 -25 l0
-25 125 0 125 0 0 -70 c0 -68 -1 -70 -25 -70 -20 0 -25 -5 -25 -25 0 -24 -2
-25 -75 -25 -73 0 -75 1 -75 25 0 20 -5 25 -25 25 -24 0 -25 2 -25 70 l0 70
-75 0 -75 0 0 -70 c0 -68 -1 -70 -25 -70 -20 0 -25 -5 -25 -25 0 -25 0 -25
-95 -25 l-95 0 0 95 0 95 120 0 120 0 0 50 c0 47 -2 50 -25 50 -20 0 -25 5
-25 25 0 23 -4 25 -45 25 l-45 0 0 125 c0 118 1 125 20 125 15 0 20 7 20 25 0
24 2 25 75 25 73 0 75 -1 75 -25z"/>
<path d="M1240 1890 c0 -17 7 -20 45 -20 38 0 45 3 45 20 0 17 -7 20 -45 20
-38 0 -45 -3 -45 -20z"/>
<path d="M1580 1890 c0 -17 7 -20 50 -20 43 0 50 3 50 20 0 17 -7 20 -50 20
-43 0 -50 -3 -50 -20z"/>
<path d="M1580 1595 c0 -20 -5 -25 -25 -25 -20 0 -25 -5 -25 -25 0 -24 -2 -25
-75 -25 -73 0 -75 1 -75 25 0 20 -5 25 -25 25 -20 0 -25 -5 -25 -25 0 -20 5
-25 25 -25 20 0 25 -5 25 -25 0 -24 2 -25 75 -25 73 0 75 1 75 25 0 23 3 25
50 25 l50 0 0 50 c0 47 -2 50 -25 50 -20 0 -25 -5 -25 -25z"/>
<path d="M1970 1495 c0 -23 -4 -25 -45 -25 -41 0 -45 -2 -45 -25 0 -20 -5 -25
-25 -25 -20 0 -25 -5 -25 -25 l0 -25 -225 0 -225 0 0 -25 c0 -24 -2 -25 -70
-25 -68 0 -70 1 -70 25 0 20 -5 25 -25 25 -25 0 -25 0 -25 -95 0 -95 0 -95 25
-95 20 0 25 -5 25 -25 0 -23 4 -25 45 -25 41 0 45 2 45 25 0 20 5 25 25 25
l25 0 0 -295 0 -295 25 0 c23 0 25 -3 25 -50 0 -47 -2 -50 -25 -50 -24 0 -25
-2 -25 -75 l0 -75 150 0 150 0 0 50 c0 47 -2 50 -25 50 l-25 0 0 125 0 125 50
0 50 0 0 -50 c0 -47 2 -50 25 -50 23 0 25 -3 25 -50 0 -47 -2 -50 -25 -50 -24
0 -25 -2 -25 -75 l0 -75 145 0 145 0 0 50 c0 47 -2 50 -25 50 l-25 0 0 125 0
125 -25 0 -25 0 0 195 0 195 25 0 c20 0 25 -5 25 -25 0 -24 2 -25 75 -25 73 0
75 1 75 25 0 20 5 25 25 25 23 0 25 3 25 50 0 47 2 50 25 50 25 0 25 0 25 95
0 95 0 95 -25 95 -20 0 -25 5 -25 25 0 20 -5 25 -25 25 -20 0 -25 5 -25 25 0
20 -5 25 -25 25 -20 0 -25 5 -25 25 0 23 -3 25 -50 25 -47 0 -50 -2 -50 -25z
m-90 -240 c0 -18 5 -25 20 -25 17 0 20 -7 20 -50 l0 -50 -95 0 -95 0 0 75 0
75 75 0 c73 0 75 -1 75 -25z m140 0 c0 -20 -5 -25 -25 -25 -20 0 -25 5 -25 25
0 20 5 25 25 25 20 0 25 -5 25 -25z"/>
</g>
</svg>
